<svg xmlns="http://www.w3.org/2000/svg" xmlns:xlink="http://www.w3.org/1999/xlink" version="1.1" x="0px" y="0px" viewBox="0 0 64 80" style="enable-background:new 0 0 64 64;" xml:space="preserve"><g><path d="M35,9v8h18V9H35z M51,15H37v-4h14V15z"/><path d="M35,29h4v8h10v-8h4V19H35V29z M47,35h-6V25h6V35z M37,21h14v6h-2v-4H39v4h-2V21z"/><path d="M11,37h22V9H11V37z M13,35V25h18v10H13z M31,11v4h-2v2h2v2h-2v2h2v2H13v-2h2v-2h-2v-2h2v-2h-2v-4H31z"/><rect x="27" y="31" width="2" height="2"/><rect x="23" y="31" width="2" height="2"/><rect x="19" y="31" width="2" height="2"/><rect x="15" y="31" width="2" height="2"/><rect x="27" y="27" width="2" height="2"/><rect x="23" y="27" width="2" height="2"/><rect x="19" y="27" width="2" height="2"/><rect x="15" y="27" width="2" height="2"/><path d="M52,1H12C9.243,1,7,3.243,7,6v52c0,2.757,2.243,5,5,5h40c2.757,0,5-2.243,5-5V6C57,3.243,54.757,1,52,1z M15,45v2h-2v-4h38   v4h-2v-2H15z M17,54.142c1.399,0.364,2.494,1.459,2.858,2.858H17V54.142z M21.91,57c-0.423-2.507-2.403-4.486-4.91-4.91V47h8.085   C25.037,47.33,25,47.663,25,48c0,3.86,3.141,7,7,7s7-3.14,7-7c0-0.337-0.037-0.67-0.085-1H47v5.09   c-2.507,0.423-4.486,2.403-4.91,4.91H21.91z M36.889,47C36.956,47.328,37,47.66,37,48c0,2.757-2.243,5-5,5s-5-2.243-5-5   c0-0.34,0.044-0.672,0.111-1H36.889z M47,54.142V57h-2.858C44.506,55.601,45.601,54.506,47,54.142z M9,41V7h46v34H9z M12,3h40   c1.302,0,2.402,0.839,2.816,2H9.184C9.598,3.839,10.698,3,12,3z M52,61H12c-1.654,0-3-1.346-3-3V43h2v6h4v10h34V49h4v-6h2v15   C55,59.654,53.654,61,52,61z"/></g><text x="0" y="79" fill="#000000" font-size="5px" font-weight="bold" font-family="'Helvetica Neue', Helvetica, Arial-Unicode, Arial, Sans-serif">Created by Eucalyp</text><text x="0" y="84" fill="#000000" font-size="5px" font-weight="bold" font-family="'Helvetica Neue', Helvetica, Arial-Unicode, Arial, Sans-serif">from the Noun Project</text></svg>