<svg xmlns="http://www.w3.org/2000/svg" xmlns:xlink="http://www.w3.org/1999/xlink" version="1.1" style="" xml:space="preserve" width="62" height="64"><rect id="backgroundrect" width="100%" height="100%" x="0" y="0" fill="none" stroke="none" class="" style=""/><g class="currentLayer" style=""><title>Layer 1</title><g id="svg_1" class=""><path d="M35.10000379830912,10.090832156268052 v7.643463684781693 h17.810526947774378 V10.090832156268052 H35.10000379830912 zM50.9315833074419,15.82342991985432 H37.078951236950715 v-3.8217318423908466 h13.852632070491183 V15.82342991985432 z" id="svg_2"/><path d="M35.10000379830912,29.199491368222287 h3.9578948772831963 v7.643463684781693 h9.894737193207988 v-7.643463684781693 h3.9578948772831963 V19.64516176224517 H35.10000379830912 V29.199491368222287 zM46.9736884301587,34.93208913180856 h-5.9368423159247925 V25.37775952583144 h5.9368423159247925 V34.93208913180856 zM37.078951236950715,21.556027683440593 h13.852632070491183 v5.73259776358627 h-1.9789474386415982 v-3.8217318423908466 H39.05789867559231 v3.8217318423908466 h-1.9789474386415982 V21.556027683440593 z" id="svg_3"/><path d="M11.352634534609948,36.84295505300398 h21.768421825057573 V10.090832156268052 H11.352634534609948 V36.84295505300398 zM13.331581973251545,34.93208913180856 V25.37775952583144 h17.810526947774378 v9.554329605977117 H13.331581973251545 zM31.142108921025923,12.001698077463475 v3.8217318423908466 h-1.9789474386415982 v1.9108659211954233 h1.9789474386415982 v1.9108659211954233 h-1.9789474386415982 v1.9108659211954233 h1.9789474386415982 v1.9108659211954233 H13.331581973251545 v-1.9108659211954233 h1.9789474386415982 v-1.9108659211954233 h-1.9789474386415982 v-1.9108659211954233 h1.9789474386415982 v-1.9108659211954233 h-1.9789474386415982 v-3.8217318423908466 H31.142108921025923 z" id="svg_4"/><rect x="27.184214043742728" y="31.110357289417706" width="1.9789474386415975" height="1.9108659211954233" id="svg_5"/><rect x="23.226319166459533" y="31.110357289417706" width="1.9789474386415975" height="1.9108659211954233" id="svg_6"/><rect x="19.268424289176338" y="31.110357289417706" width="1.9789474386415975" height="1.9108659211954233" id="svg_7"/><rect x="15.310529411893143" y="31.110357289417706" width="1.9789474386415975" height="1.9108659211954233" id="svg_8"/><rect x="27.184214043742728" y="27.288625447026863" width="1.9789474386415975" height="1.9108659211954233" id="svg_9"/><rect x="23.226319166459533" y="27.288625447026863" width="1.9789474386415975" height="1.9108659211954233" id="svg_10"/><rect x="19.268424289176338" y="27.288625447026863" width="1.9789474386415975" height="1.9108659211954233" id="svg_11"/><rect x="15.310529411893143" y="27.288625447026863" width="1.9789474386415975" height="1.9108659211954233" id="svg_12"/><path d="M51.921057026762696,2.4473684714863584 H12.342108253930746 C9.614129209763306,2.4473684714863584 7.3947396573267525,4.590404602107026 7.3947396573267525,7.224533274474917 v49.682513951081006 c0,2.6341286723678916 2.2193895524365512,4.777164802988558 4.947368596603994,4.777164802988558 h39.57894877283195 c2.727979044167443,0 4.947368596603994,-2.143036130620667 4.947368596603994,-4.777164802988558 V7.224533274474917 C56.86842562336669,4.590404602107026 54.64903607093012,2.4473684714863584 51.921057026762696,2.4473684714863584 zM15.310529411893143,44.48641873778568 v1.9108659211954233 h-1.9789474386415982 v-3.8217318423908466 h37.60000133419035 v3.8217318423908466 h-1.9789474386415982 v-1.9108659211954233 H15.310529411893143 zM17.28947685053474,53.220986863569955 c1.3842737333297976,0.3477775976575676 2.467747455986072,1.3939766895120624 2.827915889818843,2.73062740138826 H17.28947685053474 V53.220986863569955 zM22.147792812399857,55.951614264958216 c-0.4185473832726983,-2.3952704322184633 -2.3777053475278795,-4.286072261241334 -4.858315961865122,-4.691175836534764 V46.3972846589811 h7.999895020708659 C25.241877132716,46.71257753597834 25.20526660510113,47.03073671185738 25.20526660510113,47.35271761957881 c0,3.687971227907168 3.1079369523866287,6.6880307241839825 6.926316035245591,6.6880307241839825 s6.926316035245591,-3.0000594962768146 6.926316035245591,-6.6880307241839825 c0,-0.3219809077214296 -0.03661052761486964,-0.6401400836004679 -0.084105266142268,-0.9554329605977114 H46.9736884301587 v4.863153769442352 c-2.4806106143372433,0.4041481423328323 -4.4387791048731025,2.295905404316301 -4.858315961865122,4.691175836534764 H22.147792812399857 zM36.969119654106095,46.3972846589811 C37.0354143933006,46.71066667005715 37.078951236950715,47.02787041297558 37.078951236950715,47.35271761957881 c0,2.6341286723678916 -2.2193895524365512,4.777164802988558 -4.947368596603994,4.777164802988558 s-4.947368596603994,-2.143036130620667 -4.947368596603994,-4.777164802988558 c0,-0.32484720660322236 0.043536843650115224,-0.642050949521663 0.1098315828446087,-0.9554329605977114 H36.969119654106095 zM46.9736884301587,53.220986863569955 V55.951614264958216 h-2.827915889818843 C44.50594097417263,54.614963553082006 45.5894146968289,53.56876446122752 46.9736884301587,53.220986863569955 zM9.37368709596835,40.66468689539483 V8.179966235072628 h45.51579108875674 v32.484720660322196 H9.37368709596835 zM12.342108253930746,4.358234392681782 h39.57894877283195 c1.28829478255568,0 2.3767158738085588,0.8016082539414808 2.7863579936073686,1.9108659211954233 H9.555750260323379 C9.965392380122182,5.159842646623263 11.053813471375065,4.358234392681782 12.342108253930746,4.358234392681782 zM51.921057026762696,59.77334610734906 H12.342108253930746 c-1.6365895317566017,0 -2.9684211579623963,-1.28601276496452 -2.9684211579623963,-2.866298881793135 V42.57555281659025 h1.9789474386415982 v5.73259776358627 h3.9578948772831963 v9.554329605977117 h33.64210645690716 V48.30815058017652 h3.9578948772831963 v-5.73259776358627 h1.9789474386415982 v14.331494408965675 C54.88947818472509,58.48733334238454 53.55764655851931,59.77334610734906 51.921057026762696,59.77334610734906 z" id="svg_13"/></g></g></svg>