<svg width="125" height="150" xmlns="http://www.w3.org/2000/svg">
 <!-- Created with Method Draw - http://github.com/duopixel/Method-Draw/ -->

 <g>
  <title>background</title>
  <rect fill="#fff" id="canvas_background" height="152" width="127" y="-1" x="-1"/>
  <g display="none" overflow="visible" y="0" x="0" height="100%" width="100%" id="canvasGrid">
   <rect fill="url(#gridpattern)" stroke-width="0" y="0" x="0" height="100%" width="100%"/>
  </g>
 </g>
 <g>
  <title>Layer 1</title>
  <g stroke="null" id="svg_26">
   <g stroke="null" transform="matrix(0.2272190424230643,0,0,0.24000562695328997,-1423.6027377934379,-1821.4809590899308) " id="svg_5">
    <g stroke="null" id="svg_6">
     <path stroke="null" id="svg_7" d="m6619.371189,7892.856979c24.281,-21.727 39.591,-53.283 39.591,-88.352c0,-15.487 -3.042,-30.81 -8.869,-45.025c11.825,-8.689 18.942,-19.468 18.958,-32.275c0,-0.013 0.002,-0.026 0.002,-0.041c0,-0.008 -0.001,-0.016 -0.001,-0.024l0,-7.596l45.511,-54.878c3.243,-3.911 4.334,-9.175 2.912,-14.052s-5.17,-8.731 -10.007,-10.286l-162.04,-52.106c-3.046,-0.979 -6.322,-0.979 -9.37,0l-162.044,52.105c-4.836,1.555 -8.585,5.409 -10.007,10.286s-0.331,10.141 2.912,14.052l45.511,54.878l0,7.62c0,12.635 6.908,23.3 18.433,31.931c-5.931,14.324 -9.029,29.779 -9.029,45.411c0,35.069 15.309,66.626 39.591,88.352c-78.987,5.621 -141.533,71.673 -141.533,152.066l0,39.261c0,8.451 6.852,15.303 15.303,15.303l410.404,0c8.451,0 15.303,-6.852 15.303,-15.303l0,-39.261c0.002,-80.394 -62.546,-146.445 -141.531,-152.066zm6.382,31.445l-9.025,26.723l-32.617,-27.957l24.332,0c5.876,-0.001 11.654,0.426 17.31,1.234zm-220.833,-261.761l135.823,-43.675l135.822,43.675l-31.936,38.508c-6.841,-2.605 -14.215,-4.444 -20.845,-5.855c-22.368,-4.756 -51.827,-7.375 -82.948,-7.375l-0.185,0c-31.121,0 -60.58,2.619 -82.948,7.375c-6.63,1.41 -14.006,3.249 -20.846,5.855l-31.937,-38.508zm39.986,68.172c11.64,-5.205 44.66,-12.288 95.745,-12.288l0.185,0c51.082,0 84.102,7.081 95.744,12.286c-2.873,3.393 -9.357,8.277 -21.476,12.942c-19.359,7.452 -46.428,11.724 -74.268,11.724l-0.185,0c-27.841,0 -54.91,-4.273 -74.268,-11.724c-12.119,-4.664 -18.604,-9.547 -21.477,-12.94zm27.448,192.353l26.983,0l0,0.001l-32.748,28.037l-9.282,-27.108c4.932,-0.61 9.952,-0.93 15.047,-0.93zm55.1,145.813l-176.955,0l0,-23.958c0,-51.382 31.969,-95.438 77.059,-113.324l17.378,50.752c1.643,4.798 5.556,8.471 10.449,9.805c1.329,0.362 2.683,0.54 4.028,0.54c3.607,0 7.148,-1.276 9.953,-3.678l58.087,-49.732l0,129.595l0.001,0zm-75.012,-264.375c0,-10.745 1.973,-21.37 5.753,-31.315c23.348,8.469 52.983,12.796 82.455,12.796l0.185,0c29.218,0 58.597,-4.252 81.85,-12.577c3.726,9.883 5.67,20.433 5.67,31.096c0,48.499 -39.458,87.956 -87.957,87.956s-87.956,-39.456 -87.956,-87.956zm277.856,264.376l-0.001,0l-172.236,0l0,-127.83l55.955,47.962c2.808,2.406 6.351,3.684 9.96,3.684c1.354,0 2.718,-0.18 4.055,-0.547c4.903,-1.348 8.816,-5.042 10.442,-9.859l16.834,-49.844c43.996,18.4 74.99,61.885 74.99,112.477l0,23.957l0.001,0z"/>
    </g>
   </g>
   <g stroke="null" transform="matrix(0.2272190424230643,0,0,0.24000562695328997,-1423.6027377934379,-1821.4809590899308) " id="svg_8">
    <g stroke="null" id="svg_9">
     <path stroke="null" id="svg_10" d="m6673.510189,8023.277979l-47.326,0c-8.452,0 -15.303,6.852 -15.303,15.303c0,8.451 6.852,15.303 15.303,15.303l47.326,0c8.452,0 15.303,-6.852 15.303,-15.303c0.001,-8.452 -6.851,-15.303 -15.303,-15.303z"/>
    </g>
   </g>
   <g stroke="null" transform="matrix(0.2272190424230643,0,0,0.24000562695328997,-1423.6027377934379,-1821.4809590899308) " id="svg_11"/>
   <g stroke="null" transform="matrix(0.2272190424230643,0,0,0.24000562695328997,-1423.6027377934379,-1821.4809590899308) " id="svg_12"/>
   <g stroke="null" transform="matrix(0.2272190424230643,0,0,0.24000562695328997,-1423.6027377934379,-1821.4809590899308) " id="svg_13"/>
   <g stroke="null" transform="matrix(0.2272190424230643,0,0,0.24000562695328997,-1423.6027377934379,-1821.4809590899308) " id="svg_14"/>
   <g stroke="null" transform="matrix(0.2272190424230643,0,0,0.24000562695328997,-1423.6027377934379,-1821.4809590899308) " id="svg_15"/>
   <g stroke="null" transform="matrix(0.2272190424230643,0,0,0.24000562695328997,-1423.6027377934379,-1821.4809590899308) " id="svg_16"/>
   <g stroke="null" transform="matrix(0.2272190424230643,0,0,0.24000562695328997,-1423.6027377934379,-1821.4809590899308) " id="svg_17"/>
   <g stroke="null" transform="matrix(0.2272190424230643,0,0,0.24000562695328997,-1423.6027377934379,-1821.4809590899308) " id="svg_18"/>
   <g stroke="null" transform="matrix(0.2272190424230643,0,0,0.24000562695328997,-1423.6027377934379,-1821.4809590899308) " id="svg_19"/>
   <g stroke="null" transform="matrix(0.2272190424230643,0,0,0.24000562695328997,-1423.6027377934379,-1821.4809590899308) " id="svg_20"/>
   <g stroke="null" transform="matrix(0.2272190424230643,0,0,0.24000562695328997,-1423.6027377934379,-1821.4809590899308) " id="svg_21"/>
   <g stroke="null" transform="matrix(0.2272190424230643,0,0,0.24000562695328997,-1423.6027377934379,-1821.4809590899308) " id="svg_22"/>
   <g stroke="null" transform="matrix(0.2272190424230643,0,0,0.24000562695328997,-1423.6027377934379,-1821.4809590899308) " id="svg_23"/>
   <g stroke="null" transform="matrix(0.2272190424230643,0,0,0.24000562695328997,-1423.6027377934379,-1821.4809590899308) " id="svg_24"/>
   <g stroke="null" transform="matrix(0.2272190424230643,0,0,0.24000562695328997,-1423.6027377934379,-1821.4809590899308) " id="svg_25"/>
  </g>
  <text stroke="#000" transform="matrix(1.0101345777511597,0,0,1,-1.6182070318609476,0) " xml:space="preserve" text-anchor="start" font-family="Helvetica, Arial, sans-serif" font-size="22" id="svg_27" y="145.242188" x="16.446547" stroke-width="0" fill="#000000">GUARDS</text>
 </g>
</svg>