<?xml version="1.0" encoding="iso-8859-1"?>
<!-- Generator: Adobe Illustrator 19.0.0, SVG Export Plug-In . SVG Version: 6.00 Build 0)  -->
<svg version="1.1" id="Capa_1" xmlns="http://www.w3.org/2000/svg" xmlns:xlink="http://www.w3.org/1999/xlink" x="0px" y="0px"
	 viewBox="0 0 512 512" style="enable-background:new 0 0 512 512;" xml:space="preserve">
<g>
	<g>
		<path d="M334.974,305.37c24.281-21.727,39.591-53.283,39.591-88.352c0-15.487-3.042-30.81-8.869-45.025
			c11.825-8.689,18.942-19.468,18.958-32.275c0-0.013,0.002-0.026,0.002-0.041c0-0.008-0.001-0.016-0.001-0.024v-7.596
			l45.511-54.878c3.243-3.911,4.334-9.175,2.912-14.052s-5.17-8.731-10.007-10.286L261.031,0.735c-3.046-0.979-6.322-0.979-9.37,0
			L89.617,52.84c-4.836,1.555-8.585,5.409-10.007,10.286s-0.331,10.141,2.912,14.052l45.511,54.878v7.62
			c0,12.635,6.908,23.3,18.433,31.931c-5.931,14.324-9.029,29.779-9.029,45.411c0,35.069,15.309,66.626,39.591,88.352
			c-78.987,5.621-141.533,71.673-141.533,152.066v39.261c0,8.451,6.852,15.303,15.303,15.303h410.404
			c8.451,0,15.303-6.852,15.303-15.303v-39.261C476.507,377.042,413.959,310.991,334.974,305.37z M341.356,336.815l-9.025,26.723
			l-32.617-27.957h24.332C329.922,335.58,335.7,336.007,341.356,336.815z M120.523,75.054l135.823-43.675l135.822,43.675
			l-31.936,38.508c-6.841-2.605-14.215-4.444-20.845-5.855c-22.368-4.756-51.827-7.375-82.948-7.375h-0.185
			c-31.121,0-60.58,2.619-82.948,7.375c-6.63,1.41-14.006,3.249-20.846,5.855L120.523,75.054z M160.509,143.226
			c11.64-5.205,44.66-12.288,95.745-12.288h0.185c51.082,0,84.102,7.081,95.744,12.286c-2.873,3.393-9.357,8.277-21.476,12.942
			c-19.359,7.452-46.428,11.724-74.268,11.724h-0.185c-27.841,0-54.91-4.273-74.268-11.724
			C169.867,151.502,163.382,146.619,160.509,143.226z M187.957,335.579h26.983v0.001l-32.748,28.037l-9.282-27.108
			C177.842,335.899,182.862,335.579,187.957,335.579z M243.057,481.392H66.102v-23.958c0-51.382,31.969-95.438,77.059-113.324
			l17.378,50.752c1.643,4.798,5.556,8.471,10.449,9.805c1.329,0.362,2.683,0.54,4.028,0.54c3.607,0,7.148-1.276,9.953-3.678
			l58.087-49.732V481.392z M168.045,217.017c0-10.745,1.973-21.37,5.753-31.315c23.348,8.469,52.983,12.796,82.455,12.796h0.185
			c29.218,0,58.597-4.252,81.85-12.577c3.726,9.883,5.67,20.433,5.67,31.096c0,48.499-39.458,87.956-87.957,87.956
			S168.045,265.517,168.045,217.017z M445.901,481.393H445.9H273.664V353.563l55.955,47.962c2.808,2.406,6.351,3.684,9.96,3.684
			c1.354,0,2.718-0.18,4.055-0.547c4.903-1.348,8.816-5.042,10.442-9.859l16.834-49.844c43.996,18.4,74.99,61.885,74.99,112.477
			V481.393z"/>
	</g>
</g>
<g>
	<g>
		<path d="M389.113,435.791h-47.326c-8.452,0-15.303,6.852-15.303,15.303c0,8.451,6.852,15.303,15.303,15.303h47.326
			c8.452,0,15.303-6.852,15.303-15.303C404.417,442.642,397.565,435.791,389.113,435.791z"/>
	</g>
</g>
<g>
</g>
<g>
</g>
<g>
</g>
<g>
</g>
<g>
</g>
<g>
</g>
<g>
</g>
<g>
</g>
<g>
</g>
<g>
</g>
<g>
</g>
<g>
</g>
<g>
</g>
<g>
</g>
<g>
</g>
</svg>
