<svg width="125" height="125" xmlns="http://www.w3.org/2000/svg">
 <!-- Created with Method Draw - http://github.com/duopixel/Method-Draw/ -->

 <g>
  <title>background</title>
  <rect fill="#fff" id="canvas_background" height="127" width="127" y="-1" x="-1"/>
  <g display="none" overflow="visible" y="0" x="0" height="100%" width="100%" id="canvasGrid">
   <rect fill="url(#gridpattern)" stroke-width="0" y="0" x="0" height="100%" width="100%"/>
  </g>
 </g>
 <g>
  <title>Layer 1</title>
  <g stroke="null" id="svg_29">
   <g stroke="null" transform="matrix(0.2374110015777428,0,0,0.19021656499977105,-2178.491447816428,-1743.6086990924464) " id="svg_5">
    <g stroke="null" id="svg_6">
     <path stroke="null" id="svg_7" d="m9621.684594,9542.226594c-0.059,-0.097 -0.117,-0.195 -0.176,-0.293c-0.43,-0.703 -0.871,-1.4 -1.322,-2.092c-0.248,-0.382 -0.498,-0.763 -0.752,-1.141c-0.309,-0.459 -0.621,-0.916 -0.94,-1.37c-0.411,-0.589 -0.83,-1.171 -1.255,-1.749c-0.127,-0.172 -0.245,-0.348 -0.372,-0.519c-0.091,-0.121 -0.187,-0.236 -0.278,-0.357c-0.512,-0.679 -1.035,-1.348 -1.566,-2.01c-0.186,-0.232 -0.37,-0.465 -0.557,-0.694c-0.529,-0.646 -1.07,-1.282 -1.617,-1.912c-0.228,-0.263 -0.453,-0.528 -0.683,-0.788c-0.456,-0.514 -0.924,-1.017 -1.392,-1.519c-0.349,-0.376 -0.695,-0.754 -1.05,-1.123c-0.266,-0.276 -0.541,-0.544 -0.811,-0.816c-10.356,-10.482 -23.117,-18.137 -37.485,-22.367c-0.246,-0.073 -0.496,-0.133 -0.749,-0.18c-0.003,0 -67.797,-12.594 -67.8,-12.595c-0.12,-0.022 -0.24,-0.028 -0.36,-0.047c-3.172,-0.516 -6.413,-0.091 -9.322,1.183c-2.36,-2.898 -3.915,-6.879 -3.915,-10.557l0,-12.274c4.285,-2.736 8.446,-5.811 12.462,-9.269c16.801,-14.466 27.382,-35.347 29.665,-58.126c12.336,-0.57 22.195,-10.784 22.195,-23.258l0,-17.488c0,-7.072 -3.169,-13.616 -8.504,-17.984l0,-40.202c24.514,-12.081 29.841,-26.166 29.841,-36.104c0,-17.052 -15.882,-38.396 -41.448,-55.704c-16.379,-11.087 -50.671,-29.688 -96.311,-29.688s-79.931,18.601 -96.31,29.688c-25.566,17.307 -41.448,38.651 -41.448,55.704c0,9.938 5.327,24.023 29.841,36.104l0,40.202c-5.334,4.368 -8.504,10.912 -8.504,17.984l0,17.488c0,12.474 9.859,22.688 22.195,23.258c2.282,22.779 12.864,43.661 29.665,58.126c4.016,3.458 8.177,6.533 12.462,9.269l0,12.274c0,3.678 -1.555,7.658 -3.915,10.556c-3.019,-1.323 -6.397,-1.747 -9.682,-1.135l-67.799,12.595c-0.253,0.047 -0.503,0.107 -0.749,0.18c-14.361,4.228 -27.116,11.877 -37.47,22.351c-0.277,0.279 -0.557,0.554 -0.83,0.836c-0.35,0.363 -0.691,0.737 -1.035,1.107c-0.473,0.508 -0.945,1.016 -1.407,1.535c-0.227,0.256 -0.449,0.518 -0.674,0.777c-0.55,0.633 -1.093,1.272 -1.624,1.921c-0.187,0.228 -0.369,0.46 -0.554,0.69c-0.532,0.664 -1.056,1.333 -1.568,2.012c-0.091,0.121 -0.187,0.235 -0.278,0.357c-0.128,0.171 -0.246,0.347 -0.372,0.519c-0.425,0.578 -0.844,1.16 -1.255,1.749c-0.319,0.455 -0.632,0.913 -0.941,1.372c-0.253,0.377 -0.502,0.756 -0.749,1.137c-0.451,0.693 -0.893,1.391 -1.324,2.094c-0.059,0.097 -0.118,0.195 -0.176,0.292c-8.289,13.659 -12.648,29.169 -12.648,45.346l0,9.144c0,4.144 3.359,7.502 7.502,7.502s7.502,-3.359 7.502,-7.502l0,-9.144c0,-7.312 1.084,-14.457 3.172,-21.283c4.415,3.511 9.773,5.381 15.342,5.381c0.89,0 1.787,-0.048 2.684,-0.145c6.569,-0.704 12.471,-3.925 16.618,-9.068l8.164,-10.125c4.147,-5.143 6.043,-11.594 5.339,-18.163c-0.56,-5.22 -2.714,-10.016 -6.154,-13.848c2.156,-0.877 4.358,-1.668 6.615,-2.345l43.261,-8.036l34.328,48.037c3.436,4.806 8.816,7.456 14.396,7.456c2.341,0 4.717,-0.466 6.999,-1.435l2.285,-0.971l9.99,11.614l-14.409,103.538l-94.274,0l0,-60.833c0,-4.144 -3.359,-7.502 -7.502,-7.502s-7.502,3.358 -7.502,7.502l0,60.833l-30.01,0c-5.151,0 -9.34,-4.19 -9.34,-9.34l0,-37.214c0,-4.144 -3.359,-7.502 -7.502,-7.502s-7.502,3.359 -7.502,7.502l0,37.214c0,13.423 10.921,24.345 24.345,24.345l345.608,0c13.424,0 24.345,-10.922 24.345,-24.345l0,-81.265c-0.002,-16.178 -4.36,-31.688 -12.649,-45.347zm-332.348,0.689l-8.164,10.126c-1.631,2.023 -3.952,3.289 -6.536,3.567c-2.58,0.276 -5.121,-0.468 -7.144,-2.1l-3.131,-2.524c0.672,-1.198 1.376,-2.374 2.11,-3.527c0.008,-0.013 0.018,-0.026 0.026,-0.04c0.63,-0.988 1.293,-1.95 1.968,-2.903c0.205,-0.288 0.409,-0.576 0.618,-0.862c0.602,-0.824 1.221,-1.633 1.856,-2.429c0.164,-0.206 0.325,-0.415 0.491,-0.619c0.717,-0.879 1.457,-1.737 2.214,-2.58c0.221,-0.247 0.446,-0.489 0.67,-0.732c0.75,-0.813 1.512,-1.614 2.299,-2.391c0.067,-0.067 0.133,-0.136 0.201,-0.203c2.901,-2.845 6.046,-5.451 9.413,-7.789l1.644,1.326c2.023,1.631 3.29,3.952 3.567,6.536c0.275,2.583 -0.47,5.119 -2.102,7.144zm297.159,-13.682l1.644,-1.326c3.368,2.338 6.512,4.944 9.413,7.789c0.068,0.067 0.133,0.136 0.201,0.203c0.787,0.778 1.549,1.579 2.299,2.391c0.224,0.243 0.449,0.485 0.67,0.732c0.757,0.843 1.497,1.702 2.214,2.58c0.166,0.204 0.327,0.413 0.491,0.619c0.635,0.796 1.254,1.606 1.856,2.429c0.209,0.285 0.414,0.574 0.618,0.862c0.675,0.953 1.338,1.916 1.968,2.903c0.009,0.013 0.018,0.026 0.026,0.04c0.735,1.153 1.439,2.329 2.11,3.527l-3.131,2.524c-2.024,1.631 -4.563,2.375 -7.144,2.1c-2.584,-0.277 -4.905,-1.544 -6.537,-3.568l-8.164,-10.125c-3.368,-4.176 -2.709,-10.312 1.466,-13.68zm-89.573,-22.003c0.01,-0.007 0.02,-0.015 0.03,-0.023l1.963,-1.468c0.349,-0.261 0.796,-0.362 1.222,-0.285l7.869,1.462l-30.254,42.336c-0.757,1.06 -2.123,1.444 -3.322,0.935l-22.304,-9.475l44.796,-33.482zm-59.74,25.918l-43.717,-32.676c4.13,-5.422 6.623,-12.323 6.623,-19.192l0,-4.392c11.572,4.848 23.937,7.383 37.011,7.529c0.028,0 0.056,0 0.084,0s0.056,0 0.084,0c13.074,-0.147 25.439,-2.682 37.011,-7.529l0,4.392c0,6.87 2.493,13.77 6.622,19.192l-43.718,32.676zm14.604,23.722l-6.834,7.945l-15.537,0l-6.834,-7.945l14.602,-6.203l14.603,6.203zm-122.521,-271.293c-9.642,-5.944 -14.836,-12.51 -14.836,-19.003c0,-13.524 18.067,-31.914 34.854,-43.278c14.956,-10.123 46.262,-27.108 87.899,-27.108c41.637,0 72.943,16.985 87.899,27.109c16.787,11.364 34.854,29.754 34.854,43.278c0,6.492 -5.194,13.059 -14.836,19.003l0,-13.643c0,-10.595 -7.171,-19.828 -17.44,-22.453c-19.423,-4.964 -57.616,-13.292 -95.174,-13.307c-0.034,0 -0.062,0 -0.096,0c-32.523,0 -64.835,7.161 -86.218,13.171c-9.954,2.798 -16.906,11.972 -16.906,22.309l0,13.922zm26.019,26.34c-0.105,-0.067 -0.212,-0.133 -0.316,-0.2c-0.486,-0.311 -0.954,-0.624 -1.409,-0.938c-0.185,-0.128 -0.368,-0.256 -0.548,-0.385c-0.372,-0.264 -0.733,-0.53 -1.083,-0.796c-0.241,-0.184 -0.474,-0.368 -0.704,-0.552c-0.276,-0.22 -0.547,-0.44 -0.807,-0.661c-0.277,-0.236 -0.54,-0.471 -0.798,-0.707c-0.194,-0.177 -0.39,-0.353 -0.574,-0.53c-0.294,-0.284 -0.569,-0.567 -0.836,-0.85c-0.128,-0.135 -0.262,-0.271 -0.384,-0.406c-0.013,-0.015 -0.024,-0.03 -0.037,-0.044l125.954,0c4.143,0 7.502,-3.359 7.502,-7.502c0,-4.144 -3.359,-7.502 -7.502,-7.502l-129.472,0l0,-19.188c0,-3.644 2.451,-6.878 5.961,-7.864c20.477,-5.756 51.341,-12.612 82.158,-12.612c0.028,0 0.061,0 0.089,0c35.919,0.015 72.724,8.05 91.465,12.84c3.621,0.925 6.15,4.18 6.15,7.915l0,18.908l-20.12,0c-4.143,0 -7.502,3.359 -7.502,7.502c0,4.145 3.359,7.503 7.503,7.503l16.606,0c-0.013,0.015 -0.024,0.03 -0.037,0.044c-0.122,0.135 -0.256,0.271 -0.384,0.406c-0.268,0.283 -0.542,0.566 -0.836,0.85c-0.184,0.177 -0.38,0.353 -0.574,0.53c-0.258,0.236 -0.521,0.471 -0.798,0.707c-0.26,0.221 -0.531,0.441 -0.807,0.661c-0.23,0.184 -0.463,0.368 -0.704,0.552c-0.35,0.266 -0.711,0.532 -1.083,0.796c-0.18,0.128 -0.363,0.257 -0.548,0.385c-0.456,0.314 -0.923,0.627 -1.409,0.938c-0.104,0.067 -0.21,0.133 -0.316,0.2c-3.118,1.962 -6.833,3.855 -11.079,5.611c-0.089,0.037 -0.169,0.089 -0.256,0.129c-16.074,6.626 -40.229,11.633 -70.565,11.633s-54.491,-5.007 -70.565,-11.633c-0.087,-0.04 -0.167,-0.092 -0.256,-0.129c-4.246,-1.756 -7.961,-3.649 -11.079,-5.611zm0.708,17.434l0,14.616c-4.125,-2.138 -8.299,-3.288 -11.721,-3.903l0,-17.434c3.218,2.287 7.088,4.545 11.721,6.721zm162.381,-0.001c4.633,-2.175 8.502,-4.433 11.721,-6.72l0,17.432c-3.422,0.615 -7.596,1.766 -11.721,3.904l0,-14.616zm-135.962,119.016c-15.365,-13.229 -24.44,-33.055 -24.898,-54.394c-0.087,-4.079 -3.42,-7.341 -7.5,-7.341l-5.969,0c-4.564,0 -8.278,-3.713 -8.278,-8.278l0,-17.488c0,-2.517 1.135,-4.849 3.044,-6.403c2.645,0.234 7.583,1.027 11.771,3.687c0.042,0.027 0.083,0.053 0.125,0.08c0.591,0.382 1.165,0.803 1.716,1.264c0.064,0.053 0.128,0.107 0.191,0.162c0.268,0.231 0.531,0.469 0.786,0.721c0.223,0.22 0.456,0.425 0.694,0.621c0.07,0.058 0.141,0.112 0.212,0.168c0.18,0.141 0.363,0.275 0.55,0.402c0.074,0.05 0.146,0.101 0.221,0.149c0.254,0.164 0.511,0.319 0.776,0.458c0.001,0.001 0.003,0.002 0.004,0.003c0.269,0.141 0.544,0.267 0.823,0.383c0.077,0.032 0.155,0.061 0.233,0.091c0.212,0.083 0.425,0.158 0.641,0.226c0.081,0.026 0.161,0.052 0.243,0.075c0.283,0.082 0.568,0.154 0.856,0.211c0.005,0.001 0.009,0.002 0.014,0.003c0.296,0.058 0.595,0.099 0.895,0.131c0.081,0.009 0.162,0.014 0.242,0.02c0.227,0.019 0.455,0.03 0.684,0.033c0.052,0.001 0.103,0.007 0.154,0.007c0.033,0 0.067,-0.005 0.1,-0.005c0.295,-0.003 0.591,-0.015 0.887,-0.043c0.008,-0.001 0.016,-0.001 0.023,-0.001c0.303,-0.03 0.606,-0.077 0.908,-0.135c0.085,-0.016 0.17,-0.036 0.255,-0.054c0.224,-0.049 0.447,-0.105 0.67,-0.168c0.088,-0.025 0.176,-0.049 0.264,-0.077c0.296,-0.094 0.59,-0.196 0.881,-0.317c3.868,-1.615 6.367,-5.363 6.367,-9.551l0,-17.942c19.318,6.084 43.071,9.23 66.186,9.23s46.868,-3.146 66.186,-9.23l0,17.942c0,4.188 2.499,7.937 6.367,9.551c0.292,0.122 0.588,0.225 0.885,0.319c0.084,0.026 0.168,0.049 0.252,0.074c0.228,0.065 0.457,0.123 0.687,0.172c0.08,0.017 0.16,0.036 0.241,0.051c0.607,0.116 1.219,0.175 1.829,0.18c0.031,0 0.063,0.005 0.094,0.005c0.048,0 0.096,-0.006 0.145,-0.007c0.235,-0.003 0.469,-0.015 0.703,-0.034c0.076,-0.006 0.152,-0.011 0.228,-0.019c0.6,-0.063 1.193,-0.179 1.773,-0.347c0.079,-0.023 0.157,-0.048 0.236,-0.073c0.218,-0.068 0.433,-0.145 0.647,-0.228c0.077,-0.03 0.155,-0.059 0.231,-0.091c0.279,-0.116 0.555,-0.242 0.824,-0.383c0.002,-0.001 0.004,-0.002 0.006,-0.003c0.264,-0.139 0.521,-0.294 0.774,-0.457c0.075,-0.048 0.148,-0.1 0.223,-0.15c0.186,-0.127 0.369,-0.261 0.548,-0.401c0.072,-0.056 0.144,-0.111 0.214,-0.169c0.238,-0.197 0.471,-0.401 0.693,-0.621c0.252,-0.25 0.514,-0.485 0.779,-0.714c0.069,-0.06 0.139,-0.119 0.209,-0.178c0.246,-0.206 0.495,-0.405 0.75,-0.594c0.024,-0.018 0.046,-0.036 0.07,-0.054c0.276,-0.203 0.557,-0.393 0.841,-0.578c0.076,-0.05 0.153,-0.098 0.23,-0.147c0.253,-0.159 0.509,-0.313 0.766,-0.459c0.037,-0.021 0.074,-0.044 0.112,-0.065c0.293,-0.163 0.588,-0.317 0.885,-0.464c0.074,-0.037 0.148,-0.072 0.222,-0.108c0.266,-0.128 0.533,-0.252 0.8,-0.368c0.037,-0.016 0.073,-0.033 0.11,-0.049c0.308,-0.132 0.616,-0.255 0.923,-0.372c0.055,-0.021 0.109,-0.041 0.164,-0.061c0.292,-0.109 0.583,-0.212 0.873,-0.308c0.016,-0.005 0.032,-0.011 0.048,-0.016c0.325,-0.107 0.648,-0.206 0.967,-0.298c0.012,-0.003 0.024,-0.007 0.036,-0.01c2.285,-0.656 4.379,-0.945 5.803,-1.072c1.91,1.555 3.045,3.886 3.045,6.404l0,17.488c0,4.565 -3.714,8.278 -8.278,8.278l-5.969,0c-4.081,0 -7.413,3.262 -7.5,7.341c-0.458,21.339 -9.533,41.165 -24.898,54.394c-15.933,13.719 -34.359,20.8 -54.771,21.046c-20.414,-0.245 -38.839,-7.325 -54.774,-21.045zm17.523,101.821c-1.201,0.508 -2.566,0.123 -3.322,-0.934l-30.254,-42.336l7.869,-1.462c0.428,-0.078 0.873,0.024 1.222,0.285l1.963,1.467c0.011,0.008 0.021,0.016 0.032,0.024l44.793,33.481l-22.303,9.475zm18.881,127.991l13.687,-98.358l9.36,0l13.687,98.358l-36.734,0zm191.172,0l-30.008,0l0,-60.833c0,-4.144 -3.359,-7.502 -7.502,-7.502s-7.502,3.358 -7.502,7.502l0,60.833l-94.275,0l-14.409,-103.538l9.99,-11.614l2.285,0.971c2.282,0.969 4.657,1.435 6.998,1.435c5.579,0 10.962,-2.649 14.397,-7.457l34.327,-48.036l43.261,8.036c2.257,0.677 4.46,1.468 6.616,2.345c-7.934,8.864 -8.523,22.455 -0.819,32.01l8.165,10.126c4.147,5.143 10.048,8.363 16.617,9.067c0.898,0.097 1.794,0.145 2.685,0.145c5.567,0 10.926,-1.871 15.341,-5.381c2.088,6.826 3.172,13.971 3.172,21.283l0,81.268l0.001,0c0.001,5.15 -4.19,9.34 -9.34,9.34z"/>
    </g>
   </g>
   <g stroke="null" transform="matrix(0.2374110015777428,0,0,0.19021656499977105,-2178.491447816428,-1743.6086990924464) " id="svg_8">
    <g stroke="null" id="svg_9">
     <path stroke="null" id="svg_10" d="m9539.591594,9609.843594l-39.509,0c-6.758,0 -12.256,5.498 -12.256,12.256l0,21.049c0,6.758 5.498,12.256 12.256,12.256l39.509,0c6.758,0 12.255,-5.498 12.255,-12.256l0,-21.049c0,-6.759 -5.498,-12.256 -12.255,-12.256zm-36.762,30.555l0,-15.551l34.011,0l0,15.551l-34.011,0z"/>
    </g>
   </g>
   <g stroke="null" transform="matrix(0.2374110015777428,0,0,0.19021656499977105,-2178.491447816428,-1743.6086990924464) " id="svg_11">
    <g stroke="null" id="svg_12">
     <path stroke="null" id="svg_13" d="m9374.284594,9609.842594l-39.509,0c-6.758,0 -12.255,5.498 -12.255,12.256l0,21.049c0,6.758 5.498,12.256 12.255,12.256l39.509,0c6.758,0 12.256,-5.498 12.256,-12.256l0,-21.049c0.001,-6.758 -5.498,-12.256 -12.256,-12.256zm-2.748,30.556l-34.011,0l0,-15.551l34.011,0l0,15.551z"/>
    </g>
   </g>
   <g stroke="null" transform="matrix(0.2374110015777428,0,0,0.19021656499977105,-2178.491447816428,-1743.6086990924464) " id="svg_14"/>
   <g stroke="null" transform="matrix(0.2374110015777428,0,0,0.19021656499977105,-2178.491447816428,-1743.6086990924464) " id="svg_15"/>
   <g stroke="null" transform="matrix(0.2374110015777428,0,0,0.19021656499977105,-2178.491447816428,-1743.6086990924464) " id="svg_16"/>
   <g stroke="null" transform="matrix(0.2374110015777428,0,0,0.19021656499977105,-2178.491447816428,-1743.6086990924464) " id="svg_17"/>
   <g stroke="null" transform="matrix(0.2374110015777428,0,0,0.19021656499977105,-2178.491447816428,-1743.6086990924464) " id="svg_18"/>
   <g stroke="null" transform="matrix(0.2374110015777428,0,0,0.19021656499977105,-2178.491447816428,-1743.6086990924464) " id="svg_19"/>
   <g stroke="null" transform="matrix(0.2374110015777428,0,0,0.19021656499977105,-2178.491447816428,-1743.6086990924464) " id="svg_20"/>
   <g stroke="null" transform="matrix(0.2374110015777428,0,0,0.19021656499977105,-2178.491447816428,-1743.6086990924464) " id="svg_21"/>
   <g stroke="null" transform="matrix(0.2374110015777428,0,0,0.19021656499977105,-2178.491447816428,-1743.6086990924464) " id="svg_22"/>
   <g stroke="null" transform="matrix(0.2374110015777428,0,0,0.19021656499977105,-2178.491447816428,-1743.6086990924464) " id="svg_23"/>
   <g stroke="null" transform="matrix(0.2374110015777428,0,0,0.19021656499977105,-2178.491447816428,-1743.6086990924464) " id="svg_24"/>
   <g stroke="null" transform="matrix(0.2374110015777428,0,0,0.19021656499977105,-2178.491447816428,-1743.6086990924464) " id="svg_25"/>
   <g stroke="null" transform="matrix(0.2374110015777428,0,0,0.19021656499977105,-2178.491447816428,-1743.6086990924464) " id="svg_26"/>
   <g stroke="null" transform="matrix(0.2374110015777428,0,0,0.19021656499977105,-2178.491447816428,-1743.6086990924464) " id="svg_27"/>
   <g stroke="null" transform="matrix(0.2374110015777428,0,0,0.19021656499977105,-2178.491447816428,-1743.6086990924464) " id="svg_28"/>
  </g>
  <text xml:space="preserve" text-anchor="start" font-family="Helvetica, Arial, sans-serif" font-size="16" id="svg_30" y="117.8125" x="6" stroke-width="0" stroke="#000" fill="#000000">SUPERVISORS</text>
 </g>
</svg>